<svg xmlns="http://www.w3.org/2000/svg" xmlns:xlink="http://www.w3.org/1999/xlink" width="300" height="300" viewBox="0 0 300 300"><rect width="100%" height="100%" fill="#DDDDDD"/><path d="M59.94 147.10L63.66 147.10Q65.03 147.10 66.05 146.76Q67.06 146.42 67.74 145.78Q68.41 145.14 68.75 144.23Q69.08 143.31 69.08 142.18L69.08 142.18Q69.08 141.11 68.75 140.24Q68.41 139.37 67.75 138.76Q67.08 138.15 66.07 137.83Q65.05 137.50 63.66 137.50L63.66 137.50L59.94 137.50L59.94 147.10ZM54.97 133.66L63.66 133.66Q66.34 133.66 68.30 134.28Q70.26 134.91 71.54 136.04Q72.82 137.17 73.44 138.74Q74.06 140.32 74.06 142.18L74.06 142.18Q74.06 144.13 73.41 145.75Q72.76 147.36 71.47 148.53Q70.17 149.69 68.22 150.34Q66.27 150.99 63.66 150.99L63.66 150.99L59.94 150.99L59.94 160.41L54.97 160.41L54.97 133.66ZM87.17 155.50L87.17 152.30Q85.19 152.40 83.84 152.65Q82.49 152.90 81.68 153.28Q80.87 153.67 80.51 154.19Q80.16 154.71 80.16 155.32L80.16 155.32Q80.16 156.52 80.87 157.04Q81.59 157.56 82.73 157.56L82.73 157.56Q84.14 157.56 85.17 157.05Q86.19 156.54 87.17 155.50L87.17 155.50ZM77.52 145.53L76.70 144.07Q79.98 141.07 84.58 141.07L84.58 141.07Q86.25 141.07 87.56 141.62Q88.88 142.17 89.78 143.14Q90.69 144.11 91.16 145.46Q91.63 146.81 91.63 148.42L91.63 148.42L91.63 160.41L89.56 160.41Q88.91 160.41 88.56 160.21Q88.21 160.02 88.01 159.43L88.01 159.43L87.60 158.06Q86.88 158.70 86.19 159.19Q85.51 159.68 84.77 160.02Q84.03 160.35 83.19 160.53Q82.35 160.70 81.33 160.70L81.33 160.70Q80.13 160.70 79.11 160.38Q78.09 160.05 77.35 159.41Q76.61 158.76 76.20 157.80Q75.80 156.84 75.80 155.56L75.80 155.56Q75.80 154.84 76.04 154.13Q76.28 153.41 76.82 152.77Q77.37 152.12 78.24 151.54Q79.11 150.97 80.38 150.55Q81.64 150.12 83.33 149.85Q85.01 149.58 87.17 149.53L87.17 149.53L87.17 148.42Q87.17 146.51 86.36 145.60Q85.55 144.68 84.01 144.68L84.01 144.68Q82.90 144.68 82.17 144.94Q81.44 145.20 80.88 145.52Q80.33 145.85 79.88 146.11Q79.42 146.36 78.87 146.36L78.87 146.36Q78.39 146.36 78.05 146.12Q77.72 145.87 77.52 145.53L77.52 145.53ZM108.54 143.48L107.51 145.13Q107.32 145.42 107.12 145.54Q106.91 145.66 106.60 145.66L106.60 145.66Q106.27 145.66 105.89 145.48Q105.51 145.29 105.01 145.06Q104.51 144.83 103.87 144.64Q103.23 144.46 102.36 144.46L102.36 144.46Q101.01 144.46 100.24 145.03Q99.48 145.61 99.48 146.53L99.48 146.53Q99.48 147.14 99.87 147.56Q100.27 147.97 100.93 148.29Q101.59 148.60 102.42 148.85Q103.25 149.10 104.11 149.40Q104.97 149.69 105.80 150.07Q106.64 150.45 107.29 151.04Q107.95 151.62 108.35 152.43Q108.74 153.25 108.74 154.39L108.74 154.39Q108.74 155.76 108.25 156.92Q107.76 158.08 106.80 158.92Q105.84 159.76 104.43 160.23Q103.01 160.70 101.16 160.70L101.16 160.70Q100.18 160.70 99.25 160.53Q98.31 160.35 97.45 160.04Q96.59 159.72 95.86 159.30Q95.13 158.87 94.57 158.37L94.57 158.37L95.63 156.63Q95.83 156.32 96.11 156.15Q96.39 155.98 96.81 155.98L96.81 155.98Q97.24 155.98 97.62 156.23Q98.00 156.47 98.50 156.74Q99.00 157.02 99.67 157.26Q100.35 157.50 101.38 157.50L101.38 157.50Q102.20 157.50 102.78 157.31Q103.36 157.11 103.74 156.80Q104.12 156.48 104.30 156.07Q104.47 155.65 104.47 155.21L104.47 155.21Q104.47 154.54 104.07 154.12Q103.68 153.69 103.02 153.38Q102.36 153.06 101.52 152.81Q100.68 152.56 99.80 152.27Q98.92 151.97 98.08 151.57Q97.24 151.17 96.58 150.56Q95.92 149.95 95.53 149.07Q95.13 148.18 95.13 146.92L95.13 146.92Q95.13 145.75 95.59 144.70Q96.05 143.65 96.95 142.86Q97.85 142.07 99.19 141.60Q100.53 141.13 102.29 141.13L102.29 141.13Q104.25 141.13 105.86 141.78Q107.47 142.42 108.54 143.48L108.54 143.48ZM133.09 154.78L133.09 146.27Q132.31 145.33 131.40 144.94Q130.48 144.55 129.43 144.55L129.43 144.55Q128.39 144.55 127.56 144.94Q126.73 145.33 126.13 146.12Q125.54 146.90 125.23 148.11Q124.91 149.32 124.91 150.97L124.91 150.97Q124.91 152.64 125.18 153.79Q125.45 154.95 125.95 155.68Q126.45 156.41 127.17 156.73Q127.89 157.06 128.78 157.06L128.78 157.06Q130.20 157.06 131.20 156.47Q132.20 155.87 133.09 154.78L133.09 154.78ZM133.09 132.92L137.66 132.92L137.66 160.41L134.87 160.41Q133.96 160.41 133.72 159.57L133.72 159.57L133.33 157.74Q132.18 159.06 130.70 159.87Q129.21 160.68 127.23 160.68L127.23 160.68Q125.67 160.68 124.38 160.04Q123.08 159.39 122.15 158.16Q121.21 156.93 120.71 155.12Q120.20 153.30 120.20 150.97L120.20 150.97Q120.20 148.86 120.77 147.05Q121.34 145.24 122.42 143.90Q123.49 142.57 124.99 141.82Q126.49 141.07 128.35 141.07L128.35 141.07Q129.95 141.07 131.07 141.57Q132.20 142.07 133.09 142.92L133.09 142.92L133.09 132.92ZM141.84 133.66L145.82 133.66L145.82 138.98L145.41 141.87Q145.26 142.68 144.93 143.12Q144.60 143.55 143.82 143.55L143.82 143.55Q143.14 143.55 142.77 143.12Q142.40 142.68 142.25 141.87L142.25 141.87L141.84 138.98L141.84 133.66ZM150.15 141.43L154.74 141.43L154.74 160.41L150.15 160.41L150.15 141.43ZM155.37 135.89L155.37 135.89Q155.37 136.49 155.12 137.00Q154.88 137.52 154.49 137.91Q154.09 138.30 153.55 138.53Q153.02 138.76 152.41 138.76L152.41 138.76Q151.81 138.76 151.29 138.53Q150.76 138.30 150.37 137.91Q149.98 137.52 149.75 137.00Q149.52 136.49 149.52 135.89L149.52 135.89Q149.52 135.28 149.75 134.75Q149.98 134.21 150.37 133.82Q150.76 133.43 151.29 133.20Q151.81 132.97 152.41 132.97L152.41 132.97Q153.02 132.97 153.55 133.20Q154.09 133.43 154.49 133.82Q154.88 134.21 155.12 134.75Q155.37 135.28 155.37 135.89ZM163.97 160.41L159.40 160.41L159.40 141.43L162.19 141.43Q163.08 141.43 163.36 142.26L163.36 142.26L163.65 143.66Q164.15 143.11 164.70 142.65Q165.24 142.18 165.86 141.85Q166.48 141.52 167.20 141.32Q167.91 141.13 168.76 141.13L168.76 141.13Q170.55 141.13 171.71 142.10Q172.87 143.07 173.44 144.68L173.44 144.68Q173.88 143.74 174.55 143.06Q175.22 142.39 176.01 141.96Q176.81 141.54 177.70 141.33Q178.60 141.13 179.51 141.13L179.51 141.13Q181.08 141.13 182.30 141.61Q183.52 142.09 184.35 143.02Q185.19 143.94 185.62 145.27Q186.06 146.61 186.06 148.33L186.06 148.33L186.06 160.41L181.49 160.41L181.49 148.33Q181.49 146.51 180.69 145.60Q179.90 144.68 178.36 144.68L178.36 144.68Q177.66 144.68 177.06 144.92Q176.45 145.16 176.00 145.62Q175.55 146.07 175.29 146.75Q175.03 147.44 175.03 148.33L175.03 148.33L175.03 160.41L170.44 160.41L170.44 148.33Q170.44 146.42 169.67 145.55Q168.91 144.68 167.43 144.68L167.43 144.68Q166.43 144.68 165.57 145.17Q164.71 145.66 163.97 146.51L163.97 146.51L163.97 160.41ZM200.41 155.50L200.41 152.30Q198.43 152.40 197.08 152.65Q195.73 152.90 194.92 153.28Q194.10 153.67 193.75 154.19Q193.40 154.71 193.40 155.32L193.40 155.32Q193.40 156.52 194.11 157.04Q194.83 157.56 195.97 157.56L195.97 157.56Q197.38 157.56 198.41 157.05Q199.43 156.54 200.41 155.50L200.41 155.50ZM190.76 145.53L189.94 144.07Q193.22 141.07 197.82 141.07L197.82 141.07Q199.49 141.07 200.80 141.62Q202.11 142.17 203.02 143.14Q203.93 144.11 204.40 145.46Q204.87 146.81 204.87 148.42L204.87 148.42L204.87 160.41L202.80 160.41Q202.15 160.41 201.80 160.21Q201.45 160.02 201.24 159.43L201.24 159.43L200.84 158.06Q200.12 158.70 199.43 159.19Q198.75 159.68 198.01 160.02Q197.27 160.35 196.43 160.53Q195.58 160.70 194.57 160.70L194.57 160.70Q193.36 160.70 192.35 160.38Q191.33 160.05 190.59 159.41Q189.85 158.76 189.44 157.80Q189.03 156.84 189.03 155.56L189.03 155.56Q189.03 154.84 189.28 154.13Q189.52 153.41 190.06 152.77Q190.61 152.12 191.48 151.54Q192.35 150.97 193.61 150.55Q194.88 150.12 196.56 149.85Q198.25 149.58 200.41 149.53L200.41 149.53L200.41 148.42Q200.41 146.51 199.60 145.60Q198.78 144.68 197.25 144.68L197.25 144.68Q196.14 144.68 195.41 144.94Q194.68 145.20 194.12 145.52Q193.57 145.85 193.11 146.11Q192.66 146.36 192.11 146.36L192.11 146.36Q191.62 146.36 191.29 146.12Q190.96 145.87 190.76 145.53L190.76 145.53ZM216.10 150.45L216.10 150.45Q216.95 150.45 217.58 150.22Q218.21 149.99 218.63 149.58Q219.04 149.18 219.25 148.60Q219.47 148.03 219.47 147.35L219.47 147.35Q219.47 145.94 218.63 145.12Q217.78 144.29 216.10 144.29L216.10 144.29Q214.42 144.29 213.58 145.12Q212.73 145.94 212.73 147.35L212.73 147.35Q212.73 148.01 212.95 148.58Q213.16 149.16 213.58 149.57Q213.99 149.99 214.63 150.22Q215.27 150.45 216.10 150.45ZM221.26 161.26L221.26 161.26Q221.26 160.70 220.93 160.35Q220.60 160.00 220.02 159.81Q219.45 159.61 218.68 159.52Q217.91 159.43 217.05 159.38Q216.19 159.33 215.28 159.30Q214.36 159.26 213.49 159.15L213.49 159.15Q212.73 159.57 212.26 160.15Q211.79 160.72 211.79 161.48L211.79 161.48Q211.79 161.98 212.04 162.41Q212.29 162.85 212.84 163.16Q213.38 163.48 214.25 163.65Q215.12 163.83 216.38 163.83L216.38 163.83Q217.65 163.83 218.58 163.63Q219.50 163.44 220.11 163.10Q220.71 162.76 220.98 162.28Q221.26 161.81 221.26 161.26ZM220.36 142.07L225.81 142.07L225.81 143.77Q225.81 144.59 224.83 144.77L224.83 144.77L223.13 145.09Q223.52 146.07 223.52 147.23L223.52 147.23Q223.52 148.64 222.95 149.78Q222.39 150.92 221.39 151.71Q220.39 152.51 219.03 152.94Q217.67 153.38 216.10 153.38L216.10 153.38Q215.55 153.38 215.03 153.32Q214.51 153.27 214.01 153.17L214.01 153.17Q213.12 153.71 213.12 154.38L213.12 154.38Q213.12 154.95 213.65 155.22Q214.18 155.49 215.05 155.60Q215.92 155.71 217.03 155.74Q218.14 155.76 219.30 155.86Q220.47 155.95 221.58 156.18Q222.69 156.41 223.56 156.91Q224.43 157.41 224.95 158.27Q225.48 159.13 225.48 160.48L225.48 160.48Q225.48 161.74 224.86 162.92Q224.24 164.11 223.07 165.03Q221.89 165.96 220.18 166.52Q218.47 167.08 216.29 167.08L216.29 167.08Q214.14 167.08 212.55 166.67Q210.96 166.25 209.90 165.56Q208.85 164.86 208.33 163.96Q207.81 163.05 207.81 162.07L207.81 162.07Q207.81 160.74 208.62 159.84Q209.42 158.94 210.83 158.41L210.83 158.41Q210.07 158.02 209.63 157.37Q209.18 156.72 209.18 155.67L209.18 155.67Q209.18 155.24 209.34 154.79Q209.50 154.34 209.80 153.89Q210.11 153.45 210.57 153.05Q211.03 152.65 211.66 152.34L211.66 152.34Q210.22 151.56 209.39 150.27Q208.57 148.97 208.57 147.23L208.57 147.23Q208.57 145.83 209.14 144.69Q209.70 143.55 210.71 142.75Q211.72 141.94 213.09 141.52Q214.47 141.09 216.10 141.09L216.10 141.09Q217.32 141.09 218.39 141.34Q219.47 141.59 220.36 142.07L220.36 142.07ZM232.31 148.73L240.93 148.73Q240.93 147.84 240.68 147.06Q240.43 146.27 239.93 145.68Q239.43 145.09 238.66 144.75Q237.89 144.40 236.88 144.40L236.88 144.40Q234.90 144.40 233.76 145.53Q232.62 146.66 232.31 148.73L232.31 148.73ZM243.96 151.49L232.21 151.49Q232.32 152.95 232.73 154.01Q233.14 155.08 233.80 155.77Q234.47 156.47 235.39 156.81Q236.30 157.15 237.41 157.15L237.41 157.15Q238.52 157.15 239.33 156.89Q240.13 156.63 240.73 156.32Q241.33 156.00 241.79 155.74Q242.24 155.49 242.67 155.49L242.67 155.49Q243.24 155.49 243.52 155.91L243.52 155.91L244.83 157.58Q244.07 158.46 243.13 159.06Q242.19 159.67 241.16 160.03Q240.13 160.39 239.07 160.54Q238.00 160.68 237.01 160.68L237.01 160.68Q235.03 160.68 233.32 160.03Q231.62 159.37 230.36 158.08Q229.11 156.80 228.38 154.90Q227.66 153.01 227.66 150.51L227.66 150.51Q227.66 148.57 228.29 146.85Q228.92 145.14 230.10 143.88Q231.27 142.61 232.96 141.87Q234.66 141.13 236.78 141.13L236.78 141.13Q238.58 141.13 240.09 141.70Q241.61 142.28 242.70 143.38Q243.79 144.48 244.41 146.08Q245.03 147.68 245.03 149.73L245.03 149.73Q245.03 150.77 244.81 151.13Q244.59 151.49 243.96 151.49L243.96 151.49Z" fill="#999999"/></svg>